<svg xmlns="http://www.w3.org/2000/svg" width="15" height="15" viewBox="0 0 15 15"><path fill="none" stroke="#9cafc3" stroke-linecap="round" stroke-linejoin="round" stroke-miterlimit="50" d="M5.94.5l-.08.44-.33 1.59c-.53.21-1 .49-1.44.83l-1.6-.54-.44-.13-.22.38L.72 4.92l-.22.39.33.29 1.24 1.05c-.04.28-.1.55-.1.85 0 .29.06.56.1.84L.83 9.4l-.33.28.22.39 1.11 1.85.22.39.44-.14 1.6-.54c.44.34.91.63 1.44.83l.33 1.59.08.44H9.05l.09-.44.33-1.59c.53-.2 1-.49 1.43-.83l1.61.54.43.14.23-.39 1.1-1.85.23-.39-.33-.28-1.24-1.06c.04-.28.1-.55.1-.84 0-.3-.06-.57-.1-.85l1.24-1.05.33-.29-.23-.39-1.1-1.85-.23-.38-.43.13-1.61.54c-.43-.34-.9-.62-1.43-.83L9.14.94 9.05.5H6.39z"/><path fill="none" stroke="#9cafc3" stroke-linecap="round" stroke-linejoin="round" stroke-miterlimit="50" d="M9.5 7.5a2 2 0 0 1-2 2 2 2 0 0 1-2-2c0-1.1.9-2 2-2a2 2 0 0 1 2 2z"/></svg>