<svg xmlns="http://www.w3.org/2000/svg" width="15" height="15" viewBox="0 0 15 15"><path fill="none" stroke="#9cafc3" stroke-linecap="round" stroke-linejoin="round" stroke-miterlimit="50" d="M4.5 5.5h-3a1 1 0 0 1-1-1v-3a1 1 0 0 1 1-1h3a1 1 0 0 1 1 1v3a1 1 0 0 1-1 1zM13.5 5.5h-3a1 1 0 0 1-1-1v-3a1 1 0 0 1 1-1h3a1 1 0 0 1 1 1v3a1 1 0 0 1-1 1zM4.5 14.5h-3a1 1 0 0 1-1-1v-3a1 1 0 0 1 1-1h3a1 1 0 0 1 1 1v3a1 1 0 0 1-1 1zM13.5 14.5h-3a1 1 0 0 1-1-1v-3a1 1 0 0 1 1-1h3a1 1 0 0 1 1 1v3a1 1 0 0 1-1 1z"/></svg>