<svg xmlns="http://www.w3.org/2000/svg" width="20" height="20" viewBox="0 0 20 20"><path fill="none" stroke="#9cafc3" stroke-linecap="round" stroke-linejoin="round" stroke-miterlimit="50" d="M17.47 18.57H1.81A1.3 1.3 0 0 1 .5 17.28V1.79C.5 1.08 1.08.5 1.81.5h15.66c.72 0 1.31.58 1.31 1.29v15.49a1.3 1.3 0 0 1-1.31 1.29z"/><path fill="#9cafc3" d="M13.11 5.79a1.3 1.3 0 0 1-1.3 1.29 1.3 1.3 0 0 1-1.31-1.29c0-.71.58-1.29 1.31-1.29.72 0 1.3.58 1.3 1.29"/><path fill="none" stroke="#9cafc3" stroke-linecap="round" stroke-linejoin="round" stroke-miterlimit="50" d="M18.78 12.95l-3.92-3.87-3.92 3.87L5.72 6.5.5 14.24"/></svg>