<svg xmlns="http://www.w3.org/2000/svg" width="36" height="36" viewBox="0 0 36 36"><defs><linearGradient id="a" x1="631" x2="631" y1="928.9" y2="893.28" gradientUnits="userSpaceOnUse"><stop offset="0" stop-color="#e09b3d"/><stop offset=".3" stop-color="#c74c4d"/><stop offset=".6" stop-color="#c21975"/><stop offset="1" stop-color="#7024c4"/></linearGradient><linearGradient id="b" x1="631.5" x2="631.5" y1="929.76" y2="893.42" gradientUnits="userSpaceOnUse"><stop offset="0" stop-color="#e09b3d"/><stop offset=".3" stop-color="#c74c4d"/><stop offset=".6" stop-color="#c21975"/><stop offset="1" stop-color="#7024c4"/></linearGradient><linearGradient id="c" x1="640" x2="640" y1="926.33" y2="894.4" gradientUnits="userSpaceOnUse"><stop offset="0" stop-color="#e09b3d"/><stop offset=".3" stop-color="#c74c4d"/><stop offset=".6" stop-color="#c21975"/><stop offset="1" stop-color="#7024c4"/></linearGradient></defs><path fill="url(#a)" d="M638.23 893h-14.52c-5.91 0-10.71 4.8-10.71 10.71v14.52c0 5.9 4.8 10.71 10.71 10.71h14.52c5.9 0 10.71-4.81 10.71-10.71v-14.52c0-5.91-4.81-10.71-10.71-10.71zm0 32.32h-14.52a7.08 7.08 0 0 1-7.09-7.09v-14.52a7.08 7.08 0 0 1 7.09-7.09h14.52a7.08 7.08 0 0 1 7.09 7.09v14.52a7.08 7.08 0 0 1-7.09 7.09z" transform="translate(-613 -893)"/><path fill="url(#b)" d="M631.29 902a9.3 9.3 0 0 0 0 18.59 9.3 9.3 0 0 0 0-18.59zm0 14.97a5.67 5.67 0 1 1 0-11.35 5.67 5.67 0 0 1 0 11.35z" transform="translate(-613 -893)"/><path fill="url(#c)" d="M638 902a2 2 0 1 1 4 0 2 2 0 0 1-4 0z" transform="translate(-613 -893)"/></svg>